<?xml version="1.0" standalone="no"?>
<!DOCTYPE svg PUBLIC "-//W3C//DTD SVG 20010904//EN"
 "http://www.w3.org/TR/2001/REC-SVG-20010904/DTD/svg10.dtd">
<svg version="1.0" xmlns="http://www.w3.org/2000/svg"
 width="700.000000pt" height="700.000000pt" viewBox="0 0 700.000000 700.000000"
 preserveAspectRatio="xMidYMid meet">
<metadata>
Created by potrace 1.14, written by Peter Selinger 2001-2017
</metadata>
<g transform="translate(0.000000,700.000000) scale(0.100000,-0.100000)"
fill="#000000" stroke="none">
<path d="M3069 6893 c-8 -10 -36 -49 -61 -88 -95 -145 -318 -486 -416 -634
-56 -85 -100 -156 -98 -158 3 -3 78 -6 168 -6 l163 -2 0 -285 0 -285 -308 0
-308 -1 2 234 c1 159 -2 236 -9 241 -8 5 -381 7 -402 2 -3 0 -5 -108 -5 -239
l0 -237 -407 0 c-404 -1 -408 -1 -409 20 0 11 0 52 1 90 6 211 6 245 -2 245
-5 0 -90 -49 -191 -109 -100 -60 -196 -117 -214 -127 -107 -62 -483 -287 -497
-297 -14 -11 0 -23 111 -99 71 -47 173 -117 228 -155 55 -38 170 -116 255
-174 85 -58 182 -125 214 -147 33 -23 62 -42 65 -42 3 0 8 57 10 128 2 70 4
145 5 167 l1 40 415 0 415 0 0 -1577 1 -1577 -103 1 -102 1 -3 121 -3 121
-349 -217 c-191 -119 -350 -219 -353 -221 -2 -3 65 -47 149 -99 84 -52 244
-151 356 -221 l202 -126 0 115 c0 102 2 114 18 115 65 4 175 3 181 -1 4 -3 8
-123 7 -267 0 -230 -2 -263 -16 -264 -8 -1 -68 -1 -133 -2 -89 0 -117 -3 -113
-12 2 -7 71 -114 153 -239 81 -124 180 -276 220 -336 l72 -111 80 123 c44 68
85 128 90 135 6 7 11 14 11 17 0 3 26 44 59 93 103 154 211 322 211 327 0 2
-44 4 -97 4 -54 0 -104 0 -110 1 -10 1 -13 62 -13 269 l0 267 705 0 c387 -1
708 -4 712 -8 7 -7 12 -210 6 -232 -2 -6 -49 -10 -118 -9 -63 0 -115 -1 -115
-3 0 -6 383 -618 395 -631 15 -17 14 -19 135 178 50 80 94 152 100 160 54 85
180 289 180 293 0 2 -53 4 -117 3 l-118 0 -1 124 0 125 775 -1 c427 -1 783 0
792 2 14 4 16 58 15 527 l-1 522 201 3 200 2 3 -107 c2 -60 4 -127 4 -150 0
-24 3 -43 5 -43 6 0 -20 -15 472 286 223 136 440 269 482 295 56 33 74 49 65
56 -6 6 -70 40 -142 78 -71 37 -152 80 -180 95 -27 15 -104 55 -170 90 -66 34
-133 70 -150 80 -16 10 -88 48 -160 85 -71 37 -159 83 -193 103 l-64 34 5
-159 5 -159 -192 0 -191 0 0 961 0 961 228 0 c126 -1 233 2 238 5 8 5 13 210
10 409 l-1 45 -235 -1 c-158 0 -235 3 -238 10 -3 10 -2 172 2 202 1 7 38 11
111 10 61 -1 110 3 110 7 0 4 -47 86 -105 182 -58 96 -115 192 -127 213 -70
122 -223 372 -228 372 -5 0 -14 -15 -60 -96 -10 -17 -37 -62 -60 -100 -24 -38
-50 -82 -60 -99 -9 -16 -76 -129 -149 -249 -72 -121 -129 -221 -126 -224 3 -3
58 -6 122 -6 l117 -1 1 -110 0 -110 -878 -1 -877 0 0 25 c-1 49 -1 436 -1 492
l1 57 160 -2 c88 0 160 2 160 6 0 10 -41 74 -265 413 -98 149 -207 315 -243
370 -81 124 -76 119 -93 98z m565 -4736 c-1 -171 -2 -317 -3 -323 -1 -8 -202
-11 -708 -10 l-708 1 -3 323 -2 322 712 0 713 0 -1 -313z"/>
</g>
</svg>
