<?xml version="1.0" standalone="no"?>
<!DOCTYPE svg PUBLIC "-//W3C//DTD SVG 20010904//EN"
 "http://www.w3.org/TR/2001/REC-SVG-20010904/DTD/svg10.dtd">
<svg version="1.0" xmlns="http://www.w3.org/2000/svg"
 width="181.000000pt" height="181.000000pt" viewBox="0 0 181.000000 181.000000"
 preserveAspectRatio="xMidYMid meet">
<metadata>
Created by potrace 1.14, written by Peter Selinger 2001-2017
</metadata>
<g transform="translate(0.000000,181.000000) scale(0.100000,-0.100000)"
fill="#000000" stroke="none">
<path d="M753 1723 c-20 -32 -54 -84 -75 -115 l-38 -57 45 3 46 2 -3 -75 -3
-76 -235 0 -235 0 -1 40 c-1 22 -2 43 -3 47 0 4 -48 -22 -106 -58 -58 -35
-110 -64 -115 -64 -6 0 -10 -4 -10 -8 0 -10 205 -152 219 -152 6 0 11 17 11
39 l0 38 107 -1 108 -1 0 -408 0 -407 -27 0 c-24 0 -28 4 -28 30 0 17 -2 30
-5 30 -2 0 -43 -25 -91 -56 l-86 -55 87 -55 c47 -30 88 -54 90 -54 2 0 5 12 7
28 3 25 10 29 46 23 4 0 8 -30 7 -66 0 -50 -3 -65 -15 -66 -8 -1 -22 -2 -30
-3 -22 -2 -15 -20 41 -103 l51 -75 23 34 c12 18 39 59 59 91 l38 59 -29 -4
-28 -3 -3 68 c-2 49 1 67 10 68 7 1 91 2 186 3 l172 1 0 -32 c0 -28 -4 -32
-29 -35 l-29 -3 46 -77 c26 -43 50 -77 53 -78 4 0 30 36 58 80 l51 80 -30 0
c-27 0 -30 3 -30 33 l0 33 204 -1 205 0 -2 135 -2 135 52 3 52 3 3 -40 3 -40
128 79 c71 43 130 80 132 82 2 2 -24 18 -58 36 -34 18 -89 47 -122 65 -96 53
-95 53 -92 6 l3 -40 -50 3 -50 3 -1 333 0 332 28 0 c15 0 27 3 27 7 0 7 -110
193 -114 193 -5 0 -116 -187 -116 -194 0 -3 14 -6 30 -6 26 0 30 -4 30 -28 l0
-27 -227 0 -228 0 -1 65 c0 36 3 70 8 76 5 7 24 10 44 7 29 -4 34 -2 28 9 -47
79 -141 218 -147 218 -4 0 -24 -26 -44 -57z m187 -1168 l0 -85 -185 0 -185 0
0 85 0 85 185 0 185 0 0 -85z"/>
</g>
</svg>
